<?xml version="1.0" encoding="UTF-8" standalone="no"?>
<!-- Created with Inkscape (http://www.inkscape.org/) -->

<svg
   xmlns:dc="http://purl.org/dc/elements/1.1/"
   xmlns:cc="http://creativecommons.org/ns#"
   xmlns:rdf="http://www.w3.org/1999/02/22-rdf-syntax-ns#"
   xmlns:svg="http://www.w3.org/2000/svg"
   xmlns="http://www.w3.org/2000/svg"
   xmlns:sodipodi="http://sodipodi.sourceforge.net/DTD/sodipodi-0.dtd"
   xmlns:inkscape="http://www.inkscape.org/namespaces/inkscape"
   width="535"
   height="533"
   id="svg4313"
   version="1.1"
   inkscape:version="0.48.0 r9654"
   sodipodi:docname="virusfinal.svg">
  <defs
     id="defs4315">
    <filter
       color-interpolation-filters="sRGB"
       inkscape:collect="always"
       id="filter4163">
      <feGaussianBlur
         inkscape:collect="always"
         stdDeviation="0.54165471"
         id="feGaussianBlur4165" />
    </filter>
  </defs>
  <sodipodi:namedview
     id="base"
     pagecolor="#ffffff"
     bordercolor="#666666"
     borderopacity="1.0"
     inkscape:pageopacity="0"
     inkscape:pageshadow="2"
     inkscape:zoom="1.0748023"
     inkscape:cx="231.07143"
     inkscape:cy="179.76991"
     inkscape:document-units="px"
     inkscape:current-layer="layer1"
     showgrid="false"
     fit-margin-top="5"
     fit-margin-left="5"
     fit-margin-right="5"
     fit-margin-bottom="5"
     inkscape:window-width="1024"
     inkscape:window-height="581"
     inkscape:window-x="-4"
     inkscape:window-y="-4"
     inkscape:window-maximized="1" />
  <metadata
     id="metadata4318">
    <rdf:RDF>
      <cc:Work
         rdf:about="">
        <dc:format>image/svg+xml</dc:format>
        <dc:type
           rdf:resource="http://purl.org/dc/dcmitype/StillImage" />
        <dc:title></dc:title>
      </cc:Work>
    </rdf:RDF>
  </metadata>
  <g
     inkscape:label="Layer 1"
     inkscape:groupmode="layer"
     id="layer1"
     transform="translate(-143.92857,-365.86218)">
    <path
       style="fill:#fff1d0;fill-opacity:1;stroke:#b9b9b9;stroke-width:5;stroke-miterlimit:4;stroke-opacity:0.68449198;stroke-dasharray:none"
       d="m 411.42857,373.36218 c -33.13708,0 -60,26.86292 -60,60 0,2.38438 0.167,4.71951 0.4375,7.03125 -18.1788,5.66412 -35.23868,13.8541 -50.78125,24.15625 -7.31985,-8.09802 -17.88062,-13.1875 -29.65625,-13.1875 -22.09139,0 -40,17.90861 -40,40 0,11.77563 5.08948,22.3364 13.1875,29.65625 -10.34315,15.60443 -18.55227,32.73996 -24.21875,51 -2.92962,-0.43971 -5.91658,-0.65625 -8.96875,-0.65625 -33.13708,0 -60,26.86292 -60,60 0,33.13708 26.86292,60 60,60 3.05217,0 6.03913,-0.21654 8.96875,-0.65625 5.66648,18.26004 13.8756,35.39557 24.21875,51 -8.09802,7.31985 -13.1875,17.88062 -13.1875,29.65625 0,22.09139 17.90861,40 40,40 11.77563,0 22.3364,-5.08948 29.65625,-13.1875 15.60443,10.34315 32.73996,18.55227 51,24.21875 -0.43971,2.92962 -0.65625,5.91658 -0.65625,8.96875 0,33.13708 26.86292,60 60,60 33.13708,0 60,-26.86292 60,-60 0,-3.05217 -0.21654,-6.03913 -0.65625,-8.96875 18.26004,-5.66648 35.39557,-13.8756 51,-24.21875 7.31985,8.09802 17.88062,13.1875 29.65625,13.1875 22.09139,0 40,-17.90861 40,-40 0,-11.77563 -5.08948,-22.3364 -13.1875,-29.65625 10.34315,-15.60443 18.55227,-32.73996 24.21875,-51 2.92962,0.43971 5.91658,0.65625 8.96875,0.65625 33.13708,0 60,-26.86292 60,-60 0,-33.13708 -26.86292,-60 -60,-60 -3.05217,0 -6.03913,0.21654 -8.96875,0.65625 -5.66648,-18.26004 -13.8756,-35.39557 -24.21875,-51 8.09802,-7.31985 13.1875,-17.88062 13.1875,-29.65625 0,-22.09139 -17.90861,-40 -40,-40 -11.77563,0 -22.3364,5.08948 -29.65625,13.1875 -15.54257,-10.30215 -32.60245,-18.49213 -50.78125,-24.15625 0.2705,-2.31174 0.4375,-4.64687 0.4375,-7.03125 0,-33.13708 -26.86292,-60 -60,-60 z"
       id="path2987"
       inkscape:connector-curvature="0" />
    <path
       inkscape:connector-curvature="0"
       style="opacity:0.27522936;fill:#d4d4d4;fill-opacity:1;stroke:none"
       d="m 530.99107,472.99893 c 25.11576,33.42951 40,74.96766 40,120 0,47.61716 -16.65664,91.34249 -44.4375,125.6875 2.83366,5.48938 4.4375,11.70908 4.4375,18.3125 0,22.09139 -17.90861,40 -40,40 -9.1754,0 -17.62614,-3.086 -24.375,-8.28125 -7.17068,3.9102 -14.61277,7.3824 -22.28125,10.40625 14.73791,9.87592 24.86561,26.11423 26.4375,44.78125 81.25311,-25.41883 140.21875,-101.27437 140.21875,-190.90625 0,-65.42461 -31.43239,-123.51092 -80,-160 z m -280,280 c 24.87295,33.10633 59.79165,58.22091 100.21875,70.875 0.9827,-11.59828 5.26711,-22.25541 11.90625,-31.03125 -41.99651,-1.62542 -80.6522,-16.19807 -112.125,-39.84375 z"
       id="path2987-82-4" />
    <path
       inkscape:connector-curvature="0"
       id="use3945"
       d="m 330.99107,780.39343 c 22.17015,0 40.1426,-16.42992 40.1426,-36.69725 0,-1.11417 -0.0567,-2.21386 -0.16308,-3.30275 -1.82807,18.71847 -19.02816,33.3945 -39.97952,33.3945 -20.95137,0 -38.15145,-14.67603 -39.97952,-33.3945 -0.10634,1.08889 -0.16308,2.18858 -0.16308,3.30275 0,20.26733 17.97245,36.69725 40.1426,36.69725 z"
       style="fill:#b9b9b9;fill-opacity:0.68627451;stroke:none" />
    <path
       inkscape:connector-curvature="0"
       id="use3947"
       d="m 530.99107,606.99893 c 22.17015,0 40.1426,-16.42992 40.1426,-36.69725 0,-1.11417 -0.0567,-2.21386 -0.16308,-3.30275 -1.82807,18.71847 -19.02816,33.3945 -39.97952,33.3945 -20.95137,0 -38.15145,-14.67603 -39.97952,-33.3945 -0.10634,1.08889 -0.16308,2.18858 -0.16308,3.30275 0,20.26733 17.97245,36.69725 40.1426,36.69725 z"
       style="fill:#b9b9b9;fill-opacity:0.68627451;stroke:none" />
    <path
       inkscape:connector-curvature="0"
       id="use3949"
       d="m 290.99107,606.99893 c 22.17015,0 40.1426,-16.42992 40.1426,-36.69725 0,-1.11417 -0.0567,-2.21386 -0.16308,-3.30275 -1.82807,18.71847 -19.02816,33.3945 -39.97952,33.3945 -20.95137,0 -38.15145,-14.67603 -39.97952,-33.3945 -0.10634,1.08889 -0.16308,2.18858 -0.16308,3.30275 0,20.26733 17.97245,36.69725 40.1426,36.69725 z"
       style="fill:#b9b9b9;fill-opacity:0.68627451;stroke:none" />
    <path
       style="fill:#b9b9b9;fill-opacity:0.68627451;stroke:none"
       d="m 410.99107,700.39343 c 33.244,0 60.19357,-24.64488 60.19357,-55.04588 0,-1.67125 -0.085,-3.32079 -0.24454,-4.95412 -2.74118,28.07771 -28.5326,50.09175 -59.94903,50.09175 -31.41644,0 -57.20785,-22.01404 -59.94903,-50.09175 -0.15946,1.63333 -0.24454,3.28287 -0.24454,4.95412 0,30.401 26.94957,55.04588 60.19357,55.04588 z"
       id="path2987-8-1-4"
       inkscape:connector-curvature="0" />
    <path
       style="fill:#ffffff;fill-opacity:0.77540104;stroke:none"
       d="m 379.52232,680.31143 c -10.229,-10.7606 -16.53125,-25.29381 -16.53125,-41.3125 0,-33.13708 26.86292,-60 60,-60 9.90951,0 19.23203,2.43349 27.46875,6.6875 -10.93122,-11.49932 -26.35036,-18.6875 -43.46875,-18.6875 -33.13708,0 -60,26.86292 -60,60 0,23.22758 13.22463,43.34123 32.53125,53.3125 z"
       id="path2989-7-4-1-5"
       inkscape:connector-curvature="0" />
    <path
       inkscape:connector-curvature="0"
       id="path4117"
       d="m 385.52232,490.31143 c -10.229,-10.7606 -16.53125,-25.29381 -16.53125,-41.3125 0,-33.13708 26.86292,-60 60,-60 9.90951,0 19.23203,2.43349 27.46875,6.6875 -10.93122,-11.49932 -26.35036,-18.6875 -43.46875,-18.6875 -33.13708,0 -60,26.86292 -60,60 0,23.22758 13.22463,43.34123 32.53125,53.3125 z"
       style="fill:#ffffff;fill-opacity:0.77540104;stroke:none" />
    <path
       style="fill:#b9b9b9;fill-opacity:0.68627451;stroke:none"
       d="m 410.99107,496.90718 c 33.244,0 60.19357,-24.64488 60.19357,-55.04588 0,-1.67125 -0.085,-3.32079 -0.24454,-4.95412 -2.74118,28.07771 -28.5326,50.09175 -59.94903,50.09175 -31.41644,0 -57.20785,-22.01404 -59.94903,-50.09175 -0.15946,1.63333 -0.24454,3.28287 -0.24454,4.95412 0,30.401 26.94957,55.04588 60.19357,55.04588 z"
       id="path2987-8-1-4-2"
       inkscape:connector-curvature="0" />
    <path
       inkscape:connector-curvature="0"
       id="path4119"
       d="m 385.52232,880.31143 c -10.229,-10.7606 -16.53125,-25.29381 -16.53125,-41.3125 0,-33.13708 26.86292,-60 60,-60 9.90951,0 19.23203,2.43349 27.46875,6.6875 -10.93122,-11.49932 -26.35036,-18.6875 -43.46875,-18.6875 -33.13708,0 -60,26.86292 -60,60 0,23.22758 13.22463,43.34123 32.53125,53.3125 z"
       style="fill:#ffffff;fill-opacity:0.77540104;stroke:none" />
    <path
       inkscape:connector-curvature="0"
       style="fill:#ffffff;fill-opacity:0.77540104;stroke:none"
       d="m 214.99107,572.99893 c -33.13708,0 -60,26.86292 -60,60 0,23.22758 13.22463,43.34123 32.53125,53.3125 -10.229,-10.7606 -16.53125,-25.29381 -16.53125,-41.3125 0,-28.46009 19.81952,-52.27711 46.40625,-58.4375 1.15968,-4.46219 2.48313,-8.88342 3.9375,-13.21875 -2.08125,-0.21901 -4.20395,-0.34375 -6.34375,-0.34375 z"
       id="path4121" />
    <path
       inkscape:connector-curvature="0"
       style="fill:#ffffff;fill-opacity:0.77540104;stroke:none"
       d="m 610.99107,572.99893 c -2.46006,0 -4.86753,0.18107 -7.25,0.46875 1.35472,4.88794 2.51482,9.84429 3.5,14.875 6.18683,-2.15669 12.82794,-3.34375 19.75,-3.34375 9.90951,0 19.23203,2.43349 27.46875,6.6875 -10.93122,-11.49932 -26.35036,-18.6875 -43.46875,-18.6875 z"
       id="path4123" />
    <path
       style="fill:#ffffff;fill-opacity:0.77540104;stroke:none"
       d="m 270.40757,590.02506 c -6.92026,-6.74492 -11.18394,-15.85457 -11.18394,-25.89535 0,-20.77086 18.17365,-37.60898 40.59196,-37.60898 6.70411,0 13.0111,1.52535 18.58352,4.19183 -7.39534,-7.20796 -17.82689,-11.71363 -29.40804,-11.71363 -22.41831,0 -40.59196,16.83812 -40.59196,37.60898 0,14.55943 8.94689,27.16699 22.00846,33.41715 z"
       id="path2989-7-4-1-5-8"
       inkscape:connector-curvature="0" />
    <path
       inkscape:connector-curvature="0"
       id="path4149"
       d="m 509.82696,588.84012 c -6.80094,-6.80504 -10.99111,-15.9959 -10.99111,-26.12617 0,-20.95601 17.86031,-37.94422 39.89211,-37.94422 6.58852,0 12.78677,1.53895 18.26311,4.2292 -7.26783,-7.27221 -17.51953,-11.81804 -28.90101,-11.81804 -22.03179,0 -39.8921,16.98821 -39.8921,37.94421 0,14.68921 8.79263,27.40915 21.629,33.71502 z"
       style="fill:#ffffff;fill-opacity:0.77540104;stroke:none" />
    <path
       inkscape:connector-curvature="0"
       style="fill:#ffffff;fill-opacity:0.77540104;stroke:none"
       d="m 249.11607,744.46768 c -9.6943,6.00021 -16.125,16.53598 -16.125,28.53125 0,13.08661 7.67938,24.41335 18.875,30.03125 -5.93164,-6.06261 -9.59375,-14.25619 -9.59375,-23.28125 0,-10.86415 5.2716,-20.50311 13.46875,-26.6875 -2.28208,-2.80679 -4.4951,-5.66383 -6.625,-8.59375 z"
       id="path4151" />
    <path
       style="fill:#ffffff;fill-opacity:0.77540104;stroke:none"
       d="m 572.05357,748.21768 c -0.79221,1.03782 -1.59433,2.07203 -2.40625,3.09375 4.01681,0.52735 7.81662,1.73023 11.28125,3.46875 -2.56235,-2.61892 -5.56897,-4.84442 -8.875,-6.5625 z m -41.59375,40.65625 c -1.94015,1.41039 -3.91431,2.78355 -5.90625,4.125 3.30101,6.46239 8.62619,11.78564 15.21875,15.09375 -5.02631,-5.13728 -8.39437,-11.8131 -9.3125,-19.21875 z"
       id="path4153"
       inkscape:connector-curvature="0" />
    <path
       inkscape:connector-curvature="0"
       id="use3962"
       d="m 490.99107,780.99893 c 22.17015,0 40.1426,-16.42992 40.1426,-36.69725 0,-1.11417 -0.0567,-2.21386 -0.16308,-3.30275 -1.82807,18.71847 -19.02816,33.3945 -39.97952,33.3945 -20.95137,0 -38.15145,-14.67603 -39.97952,-33.3945 -0.10634,1.08889 -0.16308,2.18858 -0.16308,3.30275 0,20.26733 17.97245,36.69725 40.1426,36.69725 z"
       style="fill:#b9b9b9;fill-opacity:0.68627451;stroke:none" />
    <path
       inkscape:connector-curvature="0"
       id="path4155"
       d="m 252.5773,518.27473 c -5.93165,-6.06261 -9.58623,-14.25074 -9.58623,-23.2758 0,-18.6697 15.57741,-33.80449 34.79311,-33.80449 5.74638,0 11.15237,1.37105 15.92873,3.76779 -6.33886,-6.47881 -15.28019,-10.52869 -25.20689,-10.52869 -19.2157,0 -34.79311,15.13479 -34.79311,33.80449 0,13.08661 7.66876,24.41881 18.86439,30.0367 z"
       style="fill:#ffffff;fill-opacity:0.77540104;stroke:none" />
    <path
       style="fill:#ffffff;fill-opacity:0.77540104;stroke:none;filter:url(#filter4163)"
       d="m 550.99107,456.99893 c -9.83506,0 -18.70318,3.96951 -25.03125,10.34375 3.13454,2.20598 6.18899,4.49706 9.1875,6.875 6.33446,-6.43473 15.23686,-10.46875 25.125,-10.46875 5.74638,0 11.16115,1.38451 15.9375,3.78125 -6.33885,-6.47881 -15.29205,-10.53125 -25.21875,-10.53125 z"
       id="path4157"
       inkscape:connector-curvature="0" />
    <path
       inkscape:connector-curvature="0"
       id="path4167"
       d="m 310.12323,762.27473 c -7.04662,-6.05844 -11.38815,-14.24093 -11.38815,-23.25978 0,-18.65684 18.50548,-33.78122 41.33315,-33.78122 6.82652,0 13.24867,1.37011 18.92284,3.7652 -7.53037,-6.47435 -18.1524,-10.52144 -29.94501,-10.52144 -22.82766,0 -41.33315,15.12437 -41.33315,33.78122 0,13.0776 9.11025,24.40199 22.41032,30.01602 z"
       style="fill:#ffffff;fill-opacity:0.77540104;stroke:none" />
    <path
       style="fill:#ffffff;fill-opacity:0.77540104;stroke:none"
       d="m 470.75204,762.27473 c -7.24434,-6.05844 -11.70769,-14.24093 -11.70769,-23.25978 0,-18.65684 19.02473,-33.78122 42.49292,-33.78122 7.01807,0 13.62042,1.37011 19.4538,3.7652 -7.74167,-6.47435 -18.66174,-10.52144 -30.78524,-10.52144 -23.46819,0 -42.49292,15.12437 -42.49292,33.78122 0,13.0776 9.36588,24.40199 23.03913,30.01602 z"
       id="path4169"
       inkscape:connector-curvature="0" />
  </g>
</svg>
